<svg id="Capa_1" data-name="Capa 1" xmlns="http://www.w3.org/2000/svg" xmlns:xlink="http://www.w3.org/1999/xlink" viewBox="0 0 120 20"><defs><style>.cls-1,.cls-34{fill:none;}.cls-10,.cls-11,.cls-12,.cls-13,.cls-14,.cls-15,.cls-16,.cls-17,.cls-18,.cls-19,.cls-2,.cls-20,.cls-21,.cls-22,.cls-23,.cls-24,.cls-25,.cls-26,.cls-27,.cls-28,.cls-29,.cls-3,.cls-30,.cls-31,.cls-32,.cls-33,.cls-4,.cls-5,.cls-6,.cls-7,.cls-8,.cls-9{fill:#c21718;}.cls-2,.cls-38{opacity:0;}.cls-3,.cls-39{opacity:0.03;}.cls-4,.cls-40{opacity:0.06;}.cls-41,.cls-5{opacity:0.1;}.cls-42,.cls-6{opacity:0.13;}.cls-43,.cls-7{opacity:0.16;}.cls-44,.cls-8{opacity:0.19;}.cls-45,.cls-9{opacity:0.23;}.cls-10,.cls-46{opacity:0.26;}.cls-11,.cls-47{opacity:0.29;}.cls-12,.cls-48{opacity:0.32;}.cls-13,.cls-49{opacity:0.35;}.cls-14,.cls-50{opacity:0.39;}.cls-15,.cls-51{opacity:0.42;}.cls-16,.cls-52{opacity:0.45;}.cls-17,.cls-53{opacity:0.48;}.cls-18,.cls-54{opacity:0.52;}.cls-19,.cls-55{opacity:0.55;}.cls-20,.cls-56{opacity:0.58;}.cls-21,.cls-57{opacity:0.61;}.cls-22,.cls-58{opacity:0.65;}.cls-23,.cls-59{opacity:0.68;}.cls-24,.cls-60{opacity:0.71;}.cls-25,.cls-61{opacity:0.74;}.cls-26,.cls-62{opacity:0.77;}.cls-27,.cls-63{opacity:0.81;}.cls-28,.cls-64{opacity:0.84;}.cls-29,.cls-65{opacity:0.87;}.cls-30,.cls-66{opacity:0.9;}.cls-31,.cls-67{opacity:0.94;}.cls-32,.cls-68{opacity:0.97;}.cls-34{stroke:#fff;stroke-miterlimit:10;stroke-width:0.19px;}.cls-35,.cls-38,.cls-39,.cls-40,.cls-41,.cls-42,.cls-43,.cls-44,.cls-45,.cls-46,.cls-47,.cls-48,.cls-49,.cls-50,.cls-51,.cls-52,.cls-53,.cls-54,.cls-55,.cls-56,.cls-57,.cls-58,.cls-59,.cls-60,.cls-61,.cls-62,.cls-63,.cls-64,.cls-65,.cls-66,.cls-67,.cls-68{fill:#fff;}.cls-36{opacity:0.54;}.cls-37{clip-path:url(#clip-path);}.cls-69{clip-path:url(#clip-path-2);}.cls-70{fill:#1d3b6e;}</style><clipPath id="clip-path"><path class="cls-1" d="M44.75,14.21l2.72,3-.55.18c-.05,0-.06,0-.09-.07l-1.61-1.87-.11-.11c0,.28,0,.55-.08.81-.06.59-.12,1.19-.17,1.78,0,.08,0,.13-.12.15l-.37.11c-.08,0-.09,0-.08-.07.06-.53.13-1.07.19-1.6.08-.72.17-1.43.25-2.14C44.74,14.32,44.74,14.28,44.75,14.21Z"/></clipPath><clipPath id="clip-path-2"><path class="cls-1" d="M43.81,10.86l3.43,3.77-.68.21c-.07,0-.09-.05-.12-.08l-2-2.36-.13-.15c0,.36-.07.7-.1,1-.08.75-.15,1.5-.22,2.25,0,.1,0,.16-.15.18s-.31.1-.47.15-.11,0-.1-.08l.24-2c.11-.91.21-1.81.32-2.71A1.62,1.62,0,0,1,43.81,10.86Z"/></clipPath></defs><path class="cls-2" d="M46.47,3.18,42.26,4.55,41.12,8.36l3.52,10.17,8.62-2.81L49.75,5.56ZM45,5.79a.7.7,0,0,1-.87-.41.66.66,0,0,1,.44-.83.7.7,0,0,1,.88.41A.67.67,0,0,1,45,5.79Z"/><path class="cls-3" d="M46.47,3.18,42.26,4.55,41.12,8.36l3.52,10.17,8.62-2.81L49.75,5.56ZM45,5.79a.7.7,0,0,1-.87-.41.66.66,0,0,1,.44-.83.7.7,0,0,1,.88.41A.67.67,0,0,1,45,5.79Z"/><path class="cls-4" d="M46.47,3.18,42.26,4.55,41.12,8.36l3.52,10.17,8.62-2.81L49.75,5.56ZM45,5.79a.7.7,0,0,1-.87-.41.66.66,0,0,1,.44-.83.7.7,0,0,1,.88.41A.67.67,0,0,1,45,5.79Z"/><path class="cls-5" d="M46.47,3.18,42.26,4.55,41.12,8.36l3.52,10.17,8.62-2.81L49.75,5.56ZM45,5.79a.7.7,0,0,1-.87-.41.66.66,0,0,1,.44-.83.7.7,0,0,1,.88.41A.67.67,0,0,1,45,5.79Z"/><path class="cls-6" d="M46.47,3.18,42.26,4.55,41.12,8.36l3.52,10.17,8.62-2.81L49.75,5.56ZM45,5.79a.7.7,0,0,1-.87-.41.66.66,0,0,1,.44-.83.7.7,0,0,1,.88.41A.67.67,0,0,1,45,5.79Z"/><path class="cls-7" d="M46.47,3.18,42.26,4.55,41.12,8.36l3.52,10.17,8.62-2.81L49.75,5.56ZM45,5.79a.7.7,0,0,1-.87-.41.66.66,0,0,1,.44-.83.7.7,0,0,1,.88.41A.67.67,0,0,1,45,5.79Z"/><path class="cls-8" d="M46.47,3.18,42.26,4.55,41.12,8.36l3.52,10.17,8.62-2.81L49.75,5.56ZM45,5.79a.7.7,0,0,1-.87-.41.66.66,0,0,1,.44-.83.7.7,0,0,1,.88.41A.67.67,0,0,1,45,5.79Z"/><path class="cls-9" d="M46.47,3.18,42.26,4.55,41.12,8.36l3.52,10.17,8.62-2.81L49.75,5.56ZM45,5.79a.7.7,0,0,1-.87-.41.66.66,0,0,1,.44-.83.7.7,0,0,1,.88.41A.67.67,0,0,1,45,5.79Z"/><path class="cls-10" d="M46.47,3.18,42.26,4.55,41.12,8.36l3.52,10.17,8.62-2.81L49.75,5.56ZM45,5.79a.7.7,0,0,1-.87-.41.66.66,0,0,1,.44-.83.7.7,0,0,1,.88.41A.67.67,0,0,1,45,5.79Z"/><path class="cls-11" d="M46.47,3.18,42.26,4.55,41.12,8.36l3.52,10.17,8.62-2.81L49.75,5.56ZM45,5.79a.7.7,0,0,1-.87-.41.66.66,0,0,1,.44-.83.7.7,0,0,1,.88.41A.67.67,0,0,1,45,5.79Z"/><path class="cls-12" d="M46.47,3.18,42.26,4.55,41.12,8.36l3.52,10.17,8.62-2.81L49.75,5.56ZM45,5.79a.7.7,0,0,1-.87-.41.66.66,0,0,1,.44-.83.7.7,0,0,1,.88.41A.67.67,0,0,1,45,5.79Z"/><path class="cls-13" d="M46.47,3.18,42.26,4.55,41.12,8.36l3.52,10.17,8.62-2.81L49.75,5.56ZM45,5.79a.7.7,0,0,1-.87-.41.66.66,0,0,1,.44-.83.7.7,0,0,1,.88.41A.67.67,0,0,1,45,5.79Z"/><path class="cls-14" d="M46.47,3.18,42.26,4.55,41.12,8.36l3.52,10.17,8.62-2.81L49.75,5.56ZM45,5.79a.7.7,0,0,1-.87-.41.66.66,0,0,1,.44-.83.7.7,0,0,1,.88.41A.67.67,0,0,1,45,5.79Z"/><path class="cls-15" d="M46.47,3.18,42.26,4.55,41.12,8.36l3.52,10.17,8.62-2.81L49.75,5.56ZM45,5.79a.7.7,0,0,1-.87-.41.66.66,0,0,1,.44-.83.7.7,0,0,1,.88.41A.67.67,0,0,1,45,5.79Z"/><path class="cls-16" d="M46.47,3.18,42.26,4.55,41.12,8.36l3.52,10.17,8.62-2.81L49.75,5.56ZM45,5.79a.7.7,0,0,1-.87-.41.66.66,0,0,1,.44-.83.7.7,0,0,1,.88.41A.67.67,0,0,1,45,5.79Z"/><path class="cls-17" d="M46.47,3.18,42.26,4.55,41.12,8.36l3.52,10.17,8.62-2.81L49.75,5.56ZM45,5.79a.7.7,0,0,1-.87-.41.66.66,0,0,1,.44-.83.7.7,0,0,1,.88.41A.67.67,0,0,1,45,5.79Z"/><path class="cls-18" d="M46.47,3.18,42.26,4.55,41.12,8.36l3.52,10.17,8.62-2.81L49.75,5.56ZM45,5.79a.7.7,0,0,1-.87-.41.66.66,0,0,1,.44-.83.7.7,0,0,1,.88.41A.67.67,0,0,1,45,5.79Z"/><path class="cls-19" d="M46.47,3.18,42.26,4.55,41.12,8.36l3.52,10.17,8.62-2.81L49.75,5.56ZM45,5.79a.7.7,0,0,1-.87-.41.66.66,0,0,1,.44-.83.7.7,0,0,1,.88.41A.67.67,0,0,1,45,5.79Z"/><path class="cls-20" d="M46.47,3.18,42.26,4.55,41.12,8.36l3.52,10.17,8.62-2.81L49.75,5.56ZM45,5.79a.7.7,0,0,1-.87-.41.66.66,0,0,1,.44-.83.7.7,0,0,1,.88.41A.67.67,0,0,1,45,5.79Z"/><path class="cls-21" d="M46.47,3.18,42.26,4.55,41.12,8.36l3.52,10.17,8.62-2.81L49.75,5.56ZM45,5.79a.7.7,0,0,1-.87-.41.66.66,0,0,1,.44-.83.7.7,0,0,1,.88.41A.67.67,0,0,1,45,5.79Z"/><path class="cls-22" d="M46.47,3.18,42.26,4.55,41.12,8.36l3.52,10.17,8.62-2.81L49.75,5.56ZM45,5.79a.7.7,0,0,1-.87-.41.66.66,0,0,1,.44-.83.7.7,0,0,1,.88.41A.67.67,0,0,1,45,5.79Z"/><path class="cls-23" d="M46.47,3.18,42.26,4.55,41.12,8.36l3.52,10.17,8.62-2.81L49.75,5.56ZM45,5.79a.7.7,0,0,1-.87-.41.66.66,0,0,1,.44-.83.7.7,0,0,1,.88.41A.67.67,0,0,1,45,5.79Z"/><path class="cls-24" d="M46.47,3.18,42.26,4.55,41.12,8.36l3.52,10.17,8.62-2.81L49.75,5.56ZM45,5.79a.7.7,0,0,1-.87-.41.66.66,0,0,1,.44-.83.7.7,0,0,1,.88.41A.67.67,0,0,1,45,5.79Z"/><path class="cls-25" d="M46.47,3.18,42.26,4.55,41.12,8.36l3.52,10.17,8.62-2.81L49.75,5.56ZM45,5.79a.7.7,0,0,1-.87-.41.66.66,0,0,1,.44-.83.7.7,0,0,1,.88.41A.67.67,0,0,1,45,5.79Z"/><path class="cls-26" d="M46.47,3.18,42.26,4.55,41.12,8.36l3.52,10.17,8.62-2.81L49.75,5.56ZM45,5.79a.7.7,0,0,1-.87-.41.66.66,0,0,1,.44-.83.7.7,0,0,1,.88.41A.67.67,0,0,1,45,5.79Z"/><path class="cls-27" d="M46.47,3.18,42.26,4.55,41.12,8.36l3.52,10.17,8.62-2.81L49.75,5.56ZM45,5.79a.7.7,0,0,1-.87-.41.66.66,0,0,1,.44-.83.7.7,0,0,1,.88.41A.67.67,0,0,1,45,5.79Z"/><path class="cls-28" d="M46.47,3.18,42.26,4.55,41.12,8.36l3.52,10.17,8.62-2.81L49.75,5.56ZM45,5.79a.7.7,0,0,1-.87-.41.66.66,0,0,1,.44-.83.7.7,0,0,1,.88.41A.67.67,0,0,1,45,5.79Z"/><path class="cls-29" d="M46.47,3.18,42.26,4.55,41.12,8.36l3.52,10.17,8.62-2.81L49.75,5.56ZM45,5.79a.7.7,0,0,1-.87-.41.66.66,0,0,1,.44-.83.7.7,0,0,1,.88.41A.67.67,0,0,1,45,5.79Z"/><path class="cls-30" d="M46.47,3.18,42.26,4.55,41.12,8.36l3.52,10.17,8.62-2.81L49.75,5.56ZM45,5.79a.7.7,0,0,1-.87-.41.66.66,0,0,1,.44-.83.7.7,0,0,1,.88.41A.67.67,0,0,1,45,5.79Z"/><path class="cls-31" d="M46.47,3.18,42.26,4.55,41.12,8.36l3.52,10.17,8.62-2.81L49.75,5.56ZM45,5.79a.7.7,0,0,1-.87-.41.66.66,0,0,1,.44-.83.7.7,0,0,1,.88.41A.67.67,0,0,1,45,5.79Z"/><path class="cls-32" d="M46.47,3.18,42.26,4.55,41.12,8.36l3.52,10.17,8.62-2.81L49.75,5.56ZM45,5.79a.7.7,0,0,1-.87-.41.66.66,0,0,1,.44-.83.7.7,0,0,1,.88.41A.67.67,0,0,1,45,5.79Z"/><path class="cls-33" d="M46.47,3.18,42.26,4.55,41.12,8.36l3.52,10.17,8.62-2.81L49.75,5.56ZM45,5.79a.7.7,0,0,1-.87-.41.66.66,0,0,1,.44-.83.7.7,0,0,1,.88.41A.67.67,0,0,1,45,5.79Z"/><polygon class="cls-34" points="41.61 8.29 42.61 4.96 46.42 3.71 49.15 5.68 52.53 15.5 44.97 17.95 41.61 8.29"/><path class="cls-35" d="M44.29,3.89l.24-.07C42.1-1.51,38.78.23,38.47,1.66,39.1.31,42.06-.72,44.29,3.89Z"/><path class="cls-35" d="M44.8,4.52l-.21,0a.53.53,0,0,1,.15.46c-.49-.07-1.94-.58-5.93-2.55a.68.68,0,0,1-.34-.81c-.21.46-.17.91.23,1.11,4.09,2,5.51,2.5,6,2.52h0C45.26,5.34,44.8,4.52,44.8,4.52Z"/><g class="cls-36"><g class="cls-37"><path class="cls-38" d="M46.12,8.14,43.4,9l-.74,2.46L44.93,18l5.57-1.81L48.23,9.67Zm-.93,1.68a.46.46,0,0,1-.57-.26.45.45,0,0,1,.85-.28A.43.43,0,0,1,45.19,9.82Z"/><path class="cls-39" d="M46.12,8.14,43.4,9l-.74,2.46L44.93,18l5.57-1.81L48.23,9.67Zm-.93,1.68a.46.46,0,0,1-.57-.26.45.45,0,0,1,.85-.28A.43.43,0,0,1,45.19,9.82Z"/><path class="cls-40" d="M46.12,8.14,43.4,9l-.74,2.46L44.93,18l5.57-1.81L48.23,9.67Zm-.93,1.68a.46.46,0,0,1-.57-.26.45.45,0,0,1,.85-.28A.43.43,0,0,1,45.19,9.82Z"/><path class="cls-41" d="M46.12,8.14,43.4,9l-.74,2.46L44.93,18l5.57-1.81L48.23,9.67Zm-.93,1.68a.46.46,0,0,1-.57-.26.45.45,0,0,1,.85-.28A.43.43,0,0,1,45.19,9.82Z"/><path class="cls-42" d="M46.12,8.14,43.4,9l-.74,2.46L44.93,18l5.57-1.81L48.23,9.67Zm-.93,1.68a.46.46,0,0,1-.57-.26.45.45,0,0,1,.85-.28A.43.43,0,0,1,45.19,9.82Z"/><path class="cls-43" d="M46.12,8.14,43.4,9l-.74,2.46L44.93,18l5.57-1.81L48.23,9.67Zm-.93,1.68a.46.46,0,0,1-.57-.26.45.45,0,0,1,.85-.28A.43.43,0,0,1,45.19,9.82Z"/><path class="cls-44" d="M46.12,8.14,43.4,9l-.74,2.46L44.93,18l5.57-1.81L48.23,9.67Zm-.93,1.68a.46.46,0,0,1-.57-.26.45.45,0,0,1,.85-.28A.43.43,0,0,1,45.19,9.82Z"/><path class="cls-45" d="M46.12,8.14,43.4,9l-.74,2.46L44.93,18l5.57-1.81L48.23,9.67Zm-.93,1.68a.46.46,0,0,1-.57-.26.45.45,0,0,1,.85-.28A.43.43,0,0,1,45.19,9.82Z"/><path class="cls-46" d="M46.12,8.14,43.4,9l-.74,2.46L44.93,18l5.57-1.81L48.23,9.67Zm-.93,1.68a.46.46,0,0,1-.57-.26.45.45,0,0,1,.85-.28A.43.43,0,0,1,45.19,9.82Z"/><path class="cls-47" d="M46.12,8.14,43.4,9l-.74,2.46L44.93,18l5.57-1.81L48.23,9.67Zm-.93,1.68a.46.46,0,0,1-.57-.26.45.45,0,0,1,.85-.28A.43.43,0,0,1,45.19,9.82Z"/><path class="cls-48" d="M46.12,8.14,43.4,9l-.74,2.46L44.93,18l5.57-1.81L48.23,9.67Zm-.93,1.68a.46.46,0,0,1-.57-.26.45.45,0,0,1,.85-.28A.43.43,0,0,1,45.19,9.82Z"/><path class="cls-49" d="M46.12,8.14,43.4,9l-.74,2.46L44.93,18l5.57-1.81L48.23,9.67Zm-.93,1.68a.46.46,0,0,1-.57-.26.45.45,0,0,1,.85-.28A.43.43,0,0,1,45.19,9.82Z"/><path class="cls-50" d="M46.12,8.14,43.4,9l-.74,2.46L44.93,18l5.57-1.81L48.23,9.67Zm-.93,1.68a.46.46,0,0,1-.57-.26.45.45,0,0,1,.85-.28A.43.43,0,0,1,45.19,9.82Z"/><path class="cls-51" d="M46.12,8.14,43.4,9l-.74,2.46L44.93,18l5.57-1.81L48.23,9.67Zm-.93,1.68a.46.46,0,0,1-.57-.26.45.45,0,0,1,.85-.28A.43.43,0,0,1,45.19,9.82Z"/><path class="cls-52" d="M46.12,8.14,43.4,9l-.74,2.46L44.93,18l5.57-1.81L48.23,9.67Zm-.93,1.68a.46.46,0,0,1-.57-.26.45.45,0,0,1,.85-.28A.43.43,0,0,1,45.19,9.82Z"/><path class="cls-53" d="M46.12,8.14,43.4,9l-.74,2.46L44.93,18l5.57-1.81L48.23,9.67Zm-.93,1.68a.46.46,0,0,1-.57-.26.45.45,0,0,1,.85-.28A.43.43,0,0,1,45.19,9.82Z"/><path class="cls-54" d="M46.12,8.14,43.4,9l-.74,2.46L44.93,18l5.57-1.81L48.23,9.67Zm-.93,1.68a.46.46,0,0,1-.57-.26.45.45,0,0,1,.85-.28A.43.43,0,0,1,45.19,9.82Z"/><path class="cls-55" d="M46.12,8.14,43.4,9l-.74,2.46L44.93,18l5.57-1.81L48.23,9.67Zm-.93,1.68a.46.46,0,0,1-.57-.26.45.45,0,0,1,.85-.28A.43.43,0,0,1,45.19,9.82Z"/><path class="cls-56" d="M46.12,8.14,43.4,9l-.74,2.46L44.93,18l5.57-1.81L48.23,9.67Zm-.93,1.68a.46.46,0,0,1-.57-.26.45.45,0,0,1,.85-.28A.43.43,0,0,1,45.19,9.82Z"/><path class="cls-57" d="M46.12,8.14,43.4,9l-.74,2.46L44.93,18l5.57-1.81L48.23,9.67Zm-.93,1.68a.46.46,0,0,1-.57-.26.45.45,0,0,1,.85-.28A.43.43,0,0,1,45.19,9.82Z"/><path class="cls-58" d="M46.12,8.14,43.4,9l-.74,2.46L44.93,18l5.57-1.81L48.23,9.67Zm-.93,1.68a.46.46,0,0,1-.57-.26.45.45,0,0,1,.85-.28A.43.43,0,0,1,45.19,9.82Z"/><path class="cls-59" d="M46.12,8.14,43.4,9l-.74,2.46L44.93,18l5.57-1.81L48.23,9.67Zm-.93,1.68a.46.46,0,0,1-.57-.26.45.45,0,0,1,.85-.28A.43.43,0,0,1,45.19,9.82Z"/><path class="cls-60" d="M46.12,8.14,43.4,9l-.74,2.46L44.93,18l5.57-1.81L48.23,9.67Zm-.93,1.68a.46.46,0,0,1-.57-.26.45.45,0,0,1,.85-.28A.43.43,0,0,1,45.19,9.82Z"/><path class="cls-61" d="M46.12,8.14,43.4,9l-.74,2.46L44.93,18l5.57-1.81L48.23,9.67Zm-.93,1.68a.46.46,0,0,1-.57-.26.45.45,0,0,1,.85-.28A.43.43,0,0,1,45.19,9.82Z"/><path class="cls-62" d="M46.12,8.14,43.4,9l-.74,2.46L44.93,18l5.57-1.81L48.23,9.67Zm-.93,1.68a.46.46,0,0,1-.57-.26.45.45,0,0,1,.85-.28A.43.43,0,0,1,45.19,9.82Z"/><path class="cls-63" d="M46.12,8.14,43.4,9l-.74,2.46L44.93,18l5.57-1.81L48.23,9.67Zm-.93,1.68a.46.46,0,0,1-.57-.26.45.45,0,0,1,.85-.28A.43.43,0,0,1,45.19,9.82Z"/><path class="cls-64" d="M46.12,8.14,43.4,9l-.74,2.46L44.93,18l5.57-1.81L48.23,9.67Zm-.93,1.68a.46.46,0,0,1-.57-.26.45.45,0,0,1,.85-.28A.43.43,0,0,1,45.19,9.82Z"/><path class="cls-65" d="M46.12,8.14,43.4,9l-.74,2.46L44.93,18l5.57-1.81L48.23,9.67Zm-.93,1.68a.46.46,0,0,1-.57-.26.45.45,0,0,1,.85-.28A.43.43,0,0,1,45.19,9.82Z"/><path class="cls-66" d="M46.12,8.14,43.4,9l-.74,2.46L44.93,18l5.57-1.81L48.23,9.67Zm-.93,1.68a.46.46,0,0,1-.57-.26.45.45,0,0,1,.85-.28A.43.43,0,0,1,45.19,9.82Z"/><path class="cls-67" d="M46.12,8.14,43.4,9l-.74,2.46L44.93,18l5.57-1.81L48.23,9.67Zm-.93,1.68a.46.46,0,0,1-.57-.26.45.45,0,0,1,.85-.28A.43.43,0,0,1,45.19,9.82Z"/><path class="cls-68" d="M46.12,8.14,43.4,9l-.74,2.46L44.93,18l5.57-1.81L48.23,9.67Zm-.93,1.68a.46.46,0,0,1-.57-.26.45.45,0,0,1,.85-.28A.43.43,0,0,1,45.19,9.82Z"/><path class="cls-35" d="M46.12,8.14,43.4,9l-.74,2.46L44.93,18l5.57-1.81L48.23,9.67Zm-.93,1.68a.46.46,0,0,1-.57-.26.45.45,0,0,1,.85-.28A.43.43,0,0,1,45.19,9.82Z"/></g></g><g class="cls-36"><g class="cls-69"><path class="cls-38" d="M46,3.71,42.54,4.83l-.93,3.11,2.86,8.29,7-2.29L48.64,5.65ZM44.79,5.84a.57.57,0,0,1-.71-.33.55.55,0,0,1,.37-.68.57.57,0,0,1,.71.33A.55.55,0,0,1,44.79,5.84Z"/><path class="cls-39" d="M46,3.71,42.54,4.83l-.93,3.11,2.86,8.29,7-2.29L48.64,5.65ZM44.79,5.84a.57.57,0,0,1-.71-.33.55.55,0,0,1,.37-.68.57.57,0,0,1,.71.33A.55.55,0,0,1,44.79,5.84Z"/><path class="cls-40" d="M46,3.71,42.54,4.83l-.93,3.11,2.86,8.29,7-2.29L48.64,5.65ZM44.79,5.84a.57.57,0,0,1-.71-.33.55.55,0,0,1,.37-.68.57.57,0,0,1,.71.33A.55.55,0,0,1,44.79,5.84Z"/><path class="cls-41" d="M46,3.71,42.54,4.83l-.93,3.11,2.86,8.29,7-2.29L48.64,5.65ZM44.79,5.84a.57.57,0,0,1-.71-.33.55.55,0,0,1,.37-.68.57.57,0,0,1,.71.33A.55.55,0,0,1,44.79,5.84Z"/><path class="cls-42" d="M46,3.71,42.54,4.83l-.93,3.11,2.86,8.29,7-2.29L48.64,5.65ZM44.79,5.84a.57.57,0,0,1-.71-.33.55.55,0,0,1,.37-.68.57.57,0,0,1,.71.33A.55.55,0,0,1,44.79,5.84Z"/><path class="cls-43" d="M46,3.71,42.54,4.83l-.93,3.11,2.86,8.29,7-2.29L48.64,5.65ZM44.79,5.84a.57.57,0,0,1-.71-.33.55.55,0,0,1,.37-.68.57.57,0,0,1,.71.33A.55.55,0,0,1,44.79,5.84Z"/><path class="cls-44" d="M46,3.71,42.54,4.83l-.93,3.11,2.86,8.29,7-2.29L48.64,5.65ZM44.79,5.84a.57.57,0,0,1-.71-.33.55.55,0,0,1,.37-.68.57.57,0,0,1,.71.33A.55.55,0,0,1,44.79,5.84Z"/><path class="cls-45" d="M46,3.71,42.54,4.83l-.93,3.11,2.86,8.29,7-2.29L48.64,5.65ZM44.79,5.84a.57.57,0,0,1-.71-.33.55.55,0,0,1,.37-.68.57.57,0,0,1,.71.33A.55.55,0,0,1,44.79,5.84Z"/><path class="cls-46" d="M46,3.71,42.54,4.83l-.93,3.11,2.86,8.29,7-2.29L48.64,5.65ZM44.79,5.84a.57.57,0,0,1-.71-.33.55.55,0,0,1,.37-.68.57.57,0,0,1,.71.33A.55.55,0,0,1,44.79,5.84Z"/><path class="cls-47" d="M46,3.71,42.54,4.83l-.93,3.11,2.86,8.29,7-2.29L48.64,5.65ZM44.79,5.84a.57.57,0,0,1-.71-.33.55.55,0,0,1,.37-.68.57.57,0,0,1,.71.33A.55.55,0,0,1,44.79,5.84Z"/><path class="cls-48" d="M46,3.71,42.54,4.83l-.93,3.11,2.86,8.29,7-2.29L48.64,5.65ZM44.79,5.84a.57.57,0,0,1-.71-.33.55.55,0,0,1,.37-.68.57.57,0,0,1,.71.33A.55.55,0,0,1,44.79,5.84Z"/><path class="cls-49" d="M46,3.71,42.54,4.83l-.93,3.11,2.86,8.29,7-2.29L48.64,5.65ZM44.79,5.84a.57.57,0,0,1-.71-.33.55.55,0,0,1,.37-.68.57.57,0,0,1,.71.33A.55.55,0,0,1,44.79,5.84Z"/><path class="cls-50" d="M46,3.71,42.54,4.83l-.93,3.11,2.86,8.29,7-2.29L48.64,5.65ZM44.79,5.84a.57.57,0,0,1-.71-.33.55.55,0,0,1,.37-.68.57.57,0,0,1,.71.33A.55.55,0,0,1,44.79,5.84Z"/><path class="cls-51" d="M46,3.71,42.54,4.83l-.93,3.11,2.86,8.29,7-2.29L48.64,5.65ZM44.79,5.84a.57.57,0,0,1-.71-.33.55.55,0,0,1,.37-.68.57.57,0,0,1,.71.33A.55.55,0,0,1,44.79,5.84Z"/><path class="cls-52" d="M46,3.71,42.54,4.83l-.93,3.11,2.86,8.29,7-2.29L48.64,5.65ZM44.79,5.84a.57.57,0,0,1-.71-.33.55.55,0,0,1,.37-.68.57.57,0,0,1,.71.33A.55.55,0,0,1,44.79,5.84Z"/><path class="cls-53" d="M46,3.71,42.54,4.83l-.93,3.11,2.86,8.29,7-2.29L48.64,5.65ZM44.79,5.84a.57.57,0,0,1-.71-.33.55.55,0,0,1,.37-.68.57.57,0,0,1,.71.33A.55.55,0,0,1,44.79,5.84Z"/><path class="cls-54" d="M46,3.71,42.54,4.83l-.93,3.11,2.86,8.29,7-2.29L48.64,5.65ZM44.79,5.84a.57.57,0,0,1-.71-.33.55.55,0,0,1,.37-.68.57.57,0,0,1,.71.33A.55.55,0,0,1,44.79,5.84Z"/><path class="cls-55" d="M46,3.71,42.54,4.83l-.93,3.11,2.86,8.29,7-2.29L48.64,5.65ZM44.79,5.84a.57.57,0,0,1-.71-.33.55.55,0,0,1,.37-.68.57.57,0,0,1,.71.33A.55.55,0,0,1,44.79,5.84Z"/><path class="cls-56" d="M46,3.71,42.54,4.83l-.93,3.11,2.86,8.29,7-2.29L48.64,5.65ZM44.79,5.84a.57.57,0,0,1-.71-.33.55.55,0,0,1,.37-.68.57.57,0,0,1,.71.33A.55.55,0,0,1,44.79,5.84Z"/><path class="cls-57" d="M46,3.71,42.54,4.83l-.93,3.11,2.86,8.29,7-2.29L48.64,5.65ZM44.79,5.84a.57.57,0,0,1-.71-.33.55.55,0,0,1,.37-.68.57.57,0,0,1,.71.33A.55.55,0,0,1,44.79,5.84Z"/><path class="cls-58" d="M46,3.71,42.54,4.83l-.93,3.11,2.86,8.29,7-2.29L48.64,5.65ZM44.79,5.84a.57.57,0,0,1-.71-.33.55.55,0,0,1,.37-.68.57.57,0,0,1,.71.33A.55.55,0,0,1,44.79,5.84Z"/><path class="cls-59" d="M46,3.71,42.54,4.83l-.93,3.11,2.86,8.29,7-2.29L48.64,5.65ZM44.79,5.84a.57.57,0,0,1-.71-.33.55.55,0,0,1,.37-.68.57.57,0,0,1,.71.33A.55.55,0,0,1,44.79,5.84Z"/><path class="cls-60" d="M46,3.71,42.54,4.83l-.93,3.11,2.86,8.29,7-2.29L48.64,5.65ZM44.79,5.84a.57.57,0,0,1-.71-.33.55.55,0,0,1,.37-.68.57.57,0,0,1,.71.33A.55.55,0,0,1,44.79,5.84Z"/><path class="cls-61" d="M46,3.71,42.54,4.83l-.93,3.11,2.86,8.29,7-2.29L48.64,5.65ZM44.79,5.84a.57.57,0,0,1-.71-.33.55.55,0,0,1,.37-.68.57.57,0,0,1,.71.33A.55.55,0,0,1,44.79,5.84Z"/><path class="cls-62" d="M46,3.71,42.54,4.83l-.93,3.11,2.86,8.29,7-2.29L48.64,5.65ZM44.79,5.84a.57.57,0,0,1-.71-.33.55.55,0,0,1,.37-.68.57.57,0,0,1,.71.33A.55.55,0,0,1,44.79,5.84Z"/><path class="cls-63" d="M46,3.71,42.54,4.83l-.93,3.11,2.86,8.29,7-2.29L48.64,5.65ZM44.79,5.84a.57.57,0,0,1-.71-.33.55.55,0,0,1,.37-.68.57.57,0,0,1,.71.33A.55.55,0,0,1,44.79,5.84Z"/><path class="cls-64" d="M46,3.71,42.54,4.83l-.93,3.11,2.86,8.29,7-2.29L48.64,5.65ZM44.79,5.84a.57.57,0,0,1-.71-.33.55.55,0,0,1,.37-.68.57.57,0,0,1,.71.33A.55.55,0,0,1,44.79,5.84Z"/><path class="cls-65" d="M46,3.71,42.54,4.83l-.93,3.11,2.86,8.29,7-2.29L48.64,5.65ZM44.79,5.84a.57.57,0,0,1-.71-.33.55.55,0,0,1,.37-.68.57.57,0,0,1,.71.33A.55.55,0,0,1,44.79,5.84Z"/><path class="cls-66" d="M46,3.71,42.54,4.83l-.93,3.11,2.86,8.29,7-2.29L48.64,5.65ZM44.79,5.84a.57.57,0,0,1-.71-.33.55.55,0,0,1,.37-.68.57.57,0,0,1,.71.33A.55.55,0,0,1,44.79,5.84Z"/><path class="cls-67" d="M46,3.71,42.54,4.83l-.93,3.11,2.86,8.29,7-2.29L48.64,5.65ZM44.79,5.84a.57.57,0,0,1-.71-.33.55.55,0,0,1,.37-.68.57.57,0,0,1,.71.33A.55.55,0,0,1,44.79,5.84Z"/><path class="cls-68" d="M46,3.71,42.54,4.83l-.93,3.11,2.86,8.29,7-2.29L48.64,5.65ZM44.79,5.84a.57.57,0,0,1-.71-.33.55.55,0,0,1,.37-.68.57.57,0,0,1,.71.33A.55.55,0,0,1,44.79,5.84Z"/><path class="cls-35" d="M46,3.71,42.54,4.83l-.93,3.11,2.86,8.29,7-2.29L48.64,5.65ZM44.79,5.84a.57.57,0,0,1-.71-.33.55.55,0,0,1,.37-.68.57.57,0,0,1,.71.33A.55.55,0,0,1,44.79,5.84Z"/></g></g><rect class="cls-70" x="50.75" y="8.11" width="4.16" height="7.53"/><path class="cls-35" d="M48.51,18h.25v1.78h-.25Z"/><path class="cls-35" d="M50.75,18v1.78h-.21l-1-1.33v1.33h-.25V18h.2l1,1.33V18Z"/><path class="cls-35" d="M52.64,18.62c0,.38-.27.62-.71.62H51.5v.54h-.24V18h.67C52.37,18,52.64,18.23,52.64,18.62Zm-.24,0c0-.26-.17-.4-.48-.4H51.5V19h.42C52.23,19,52.4,18.87,52.4,18.62Z"/><path class="cls-35" d="M52.89,18.89a.91.91,0,1,1,.91.91A.89.89,0,0,1,52.89,18.89Zm1.58,0a.67.67,0,1,0-.67.68A.66.66,0,0,0,54.47,18.89Z"/><path class="cls-35" d="M54.93,19.57l.09-.19a.85.85,0,0,0,.56.2c.3,0,.43-.12.43-.27,0-.44-1-.16-1-.83,0-.27.21-.5.66-.5a1,1,0,0,1,.55.15l-.08.21a.87.87,0,0,0-.47-.15c-.3,0-.42.13-.42.28,0,.44,1,.17,1,.82,0,.27-.21.51-.67.51A1,1,0,0,1,54.93,19.57Z"/><path class="cls-35" d="M56.61,18h.72a.89.89,0,1,1,0,1.78h-.72Zm.7,1.56a.67.67,0,1,0,0-1.34h-.46v1.34Z"/><path class="cls-35" d="M58.49,18.89a.91.91,0,1,1,.91.91A.89.89,0,0,1,58.49,18.89Zm1.58,0a.67.67,0,1,0-.67.68A.66.66,0,0,0,60.07,18.89Z"/><path class="cls-35" d="M62.27,19.78v-1.3l-.62,1.08h-.11l-.62-1.07v1.29h-.24V18h.21l.71,1.25L62.31,18h.2v1.78Z"/><path class="cls-35" d="M65.16,19.3c0,.3-.23.48-.66.48h-.82V18h.77c.39,0,.62.17.62.46a.42.42,0,0,1-.23.39A.44.44,0,0,1,65.16,19.3Zm-1.23-1.1v.57h.5c.25,0,.39-.09.39-.28s-.14-.29-.39-.29Zm1,1.08c0-.21-.15-.3-.42-.3h-.56v.59h.56C64.76,19.57,64.91,19.48,64.91,19.28Z"/><path class="cls-35" d="M66.15,19.16v.62h-.24v-.62L65.23,18h.26l.55.94.55-.94h.25Z"/><path class="cls-35" d="M69.33,19.78v-1.3l-.62,1.08H68.6L68,18.49v1.29h-.24V18h.2l.72,1.25.7-1.25h.2v1.78Z"/><path class="cls-35" d="M70.08,18h.24v1.78h-.24Z"/><path class="cls-35" d="M71.93,19.33H71l-.19.45h-.25L71.36,18h.24l.78,1.78h-.26Zm-.08-.2-.37-.87-.37.87Z"/><path class="cls-35" d="M72.47,18.89a.88.88,0,0,1,.91-.91.85.85,0,0,1,.65.27l-.16.16a.64.64,0,0,0-.48-.21.69.69,0,0,0,0,1.37.64.64,0,0,0,.48-.21l.16.16a.86.86,0,0,1-.66.28A.88.88,0,0,1,72.47,18.89Z"/><path class="cls-35" d="M75.43,19.33h-.91l-.19.45h-.25L74.85,18h.24l.78,1.78h-.25Zm-.09-.2L75,18.26l-.37.87Z"/><path class="cls-35" d="M77.27,19.78l-.37-.55h-.53v.54h-.24V18h.67c.44,0,.71.23.71.62a.57.57,0,0,1-.38.56l.41.6Zm0-1.16c0-.26-.17-.4-.48-.4h-.42V19h.42C77.1,19,77.27,18.87,77.27,18.62Z"/><path class="cls-35" d="M79.1,18.88h.23v.69a1,1,0,0,1-.65.23.91.91,0,1,1,0-1.82.85.85,0,0,1,.66.27l-.16.16a.69.69,0,1,0-.5,1.16.74.74,0,0,0,.41-.11Z"/><path class="cls-35" d="M79.66,18.89a.91.91,0,1,1,.91.91A.89.89,0,0,1,79.66,18.89Zm1.58,0a.67.67,0,1,0-.67.68A.66.66,0,0,0,81.24,18.89Z"/><path class="cls-35" d="M58.54,17.11a.91.91,0,0,1-.91-.91V13.12l-1.49-2.23a.9.9,0,0,1-.14-.62A1.47,1.47,0,0,0,55.7,9a1.75,1.75,0,0,0-1.2-.57l-.64-1.78,3.21,0a.92.92,0,0,1,.73.4l1.57,2.34L61,7.08a.91.91,0,0,1,.76-.41h0c.47,0,1.25.37,1.29.83a4.8,4.8,0,0,1,0,.7c0,.57,0,1.65,0,1.78a.91.91,0,0,1-.16.52l-1.75,2.62V16.2a.91.91,0,0,1-.91.91Z"/><path class="cls-35" d="M49.38,17.15a.92.92,0,0,1-.92-.92V7.56a.92.92,0,0,1,.92-.92h4.07c3,0,4.08,1.64,4.08,3.18A3.08,3.08,0,0,1,57,11.57a3.09,3.09,0,0,1,.93,2.29,2.94,2.94,0,0,1-1.22,2.49,5.09,5.09,0,0,1-3,.8Zm4.17-2.8c.39,0,.4-1.15,0-1.15H51.81v1.15Zm-.34-3.67h0c.94,0,.87-1.14,0-1.14H51.81v1.14Z"/><path class="cls-35" d="M81.59,15.82l-3.5-8.58a.92.92,0,0,0-.85-.56H75.67a.91.91,0,0,0-.85.56l-2.17,5.32v-5a.91.91,0,0,0-.92-.91H68.55a.91.91,0,0,0-.71.33L66.09,9.13,64.31,7a.93.93,0,0,0-.7-.32H62.06a.9.9,0,0,0-.91.91v8.57a.91.91,0,0,0,.91.92h1.63a.91.91,0,0,0,.91-.92V12.81l.82.93a.91.91,0,0,0,.69.31h0a.9.9,0,0,0,.69-.32l.77-.88v3.31a.92.92,0,0,0,.91.92h3.25a.78.78,0,0,0,.22,0,.76.76,0,0,0,.21,0H74a.91.91,0,0,0,.85-.58l.68-1.67h2l.68,1.67a.91.91,0,0,0,.84.58h1.79a.92.92,0,0,0,.85-1.26Z"/><path class="cls-70" d="M57,13.86c0,1.5-1.14,2.37-3.33,2.37H49.38V7.56h4.07c2.08,0,3.16.91,3.16,2.26a2.09,2.09,0,0,1-1.11,1.9A2.12,2.12,0,0,1,57,13.86ZM51.3,9.07v2h1.91c.94,0,1.46-.35,1.46-1s-.52-1-1.46-1Zm3.78,4.58c0-.73-.53-1.07-1.53-1.07H51.3v2.14h2.25C54.55,14.72,55.08,14.4,55.08,13.65Z"/><path class="cls-70" d="M62.06,7.59h1.55l2.49,3,2.45-3H70.1v8.57H68.48V10.39l-2.37,2.75-2.42-2.76v5.78H62.06Z"/><path class="cls-70" d="M70.41,9.55H72v6.61H70.41Z"/><path class="cls-70" d="M70.41,7.59H72V9H70.41Z"/><path class="cls-70" d="M75.67,7.59h1.57l3.5,8.57H79l-.9-2.24H74.86L74,16.16H72.16Zm1.72,4.7L76.45,10l-.93,2.33Z"/><path class="cls-70" d="M62,7.59H61.6l-2.36,3.47L56.91,7.61l-2.52-.05a2.41,2.41,0,0,1,2.38,2.8l1.64,2.46v3.35H60V12.82L62,10C62,9.75,62,7.6,62,7.59Z"/></svg>